<?xml version="1.0" encoding="utf-8"?>
<!-- Generator: Adobe Illustrator 21.0.0, SVG Export Plug-In . SVG Version: 6.00 Build 0)  -->
<svg version="1.1" xmlns="http://www.w3.org/2000/svg" xmlns:xlink="http://www.w3.org/1999/xlink" x="0px" y="0px"
	 viewBox="0 0 35 35" style="enable-background:new 0 0 35 35;" xml:space="preserve">
<style type="text/css">
	.st0{filter:url(#Adobe_OpacityMaskFilter);}
	.st1{fill:url(#SVGID_2_);}
	.st2{mask:url(#SVGID_1_);}
	.st3{fill:url(#SVGID_3_);}
	.st4{fill:#FC6218;}
	.st5{display:none;}
	.st6{display:inline;}
	.st7{filter:url(#Adobe_OpacityMaskFilter_1_);}
	.st8{fill:url(#SVGID_5_);}
	.st9{mask:url(#SVGID_4_);}
	.st10{fill:url(#SVGID_6_);}
	.st11{fill-rule:evenodd;clip-rule:evenodd;fill:#FC6218;}
	.st12{fill-rule:evenodd;clip-rule:evenodd;fill:url(#SVGID_7_);}
	.st13{filter:url(#Adobe_OpacityMaskFilter_2_);}
	.st14{fill:url(#SVGID_9_);}
	.st15{mask:url(#SVGID_8_);}
</style>
<g id="RATON">
</g>
<g id="FLECHAS">
</g>
<g id="TLF">
</g>
<g id="MENSAJE">
</g>
<g id="RELOJ">
</g>
<g id="FB">
	<g>
		<defs>
			<filter id="Adobe_OpacityMaskFilter" filterUnits="userSpaceOnUse" x="4.8" y="28.5" width="25.7" height="3.7">
				<feColorMatrix  type="matrix" values="1 0 0 0 0  0 1 0 0 0  0 0 1 0 0  0 0 0 1 0"/>
			</filter>
		</defs>
		<mask maskUnits="userSpaceOnUse" x="4.8" y="28.5" width="25.7" height="3.7" id="SVGID_1_">
			<g class="st0">
				
					<radialGradient id="SVGID_2_" cx="629.671" cy="1542.8641" r="7.7622" gradientTransform="matrix(-1.6526 2.900000e-03 1.240000e-02 -0.2389 1039.0677 397.1606)" gradientUnits="userSpaceOnUse">
					<stop  offset="0" style="stop-color:#FFFFFF"/>
					<stop  offset="0.1213" style="stop-color:#D1D1D1"/>
					<stop  offset="0.3023" style="stop-color:#939392"/>
					<stop  offset="0.4757" style="stop-color:#5F5F5E"/>
					<stop  offset="0.6368" style="stop-color:#363635"/>
					<stop  offset="0.7828" style="stop-color:#191918"/>
					<stop  offset="0.9086" style="stop-color:#070706"/>
					<stop  offset="1" style="stop-color:#010100"/>
				</radialGradient>
				<path class="st1" d="M4.8,30.4c0.1-1,5.8-1.9,12.9-1.9c7.1,0,12.8,0.8,12.7,1.8c0,1-5.8,1.9-12.9,1.9
					C10.4,32.3,4.7,31.4,4.8,30.4z"/>
			</g>
		</mask>
		<path class="st2" d="M4.8,30.4c0.1-1,5.8-1.9,12.9-1.9c7.1,0,12.8,0.8,12.7,1.8c0,1-5.8,1.9-12.9,1.9C10.4,32.3,4.7,31.4,4.8,30.4
			z"/>
		<g>
			<radialGradient id="SVGID_3_" cx="17.6048" cy="16.5725" r="13.8257" gradientUnits="userSpaceOnUse">
				<stop  offset="0" style="stop-color:#222222"/>
				<stop  offset="0.356" style="stop-color:#151515"/>
				<stop  offset="1" style="stop-color:#000000"/>
			</radialGradient>
			<ellipse class="st3" cx="17.6" cy="16.6" rx="13.8" ry="13.8"/>
		</g>
		<g>
			<path class="st4" d="M13.1,12.6h1.9v-1c0-1.1,0.1-1.9,0.3-2.5c0.2-0.6,0.7-1,1.3-1.3c0.6-0.3,1.4-0.5,2.4-0.5c1,0,2,0.1,2.9,0.4
				l-0.5,2.4C21,10.1,20.5,10,20,10s-0.9,0.1-1.1,0.4c-0.2,0.2-0.3,0.7-0.3,1.4v0.9h2.6v2.7h-2.6v10.4h-3.5V15.4h-1.9V12.6z"/>
		</g>
	</g>
</g>
<g id="INSTA" class="st5">
	<g class="st6">
		<g>
			<defs>
				<filter id="Adobe_OpacityMaskFilter_1_" filterUnits="userSpaceOnUse" x="4.8" y="28.4" width="25.7" height="3.7">
					<feColorMatrix  type="matrix" values="1 0 0 0 0  0 1 0 0 0  0 0 1 0 0  0 0 0 1 0"/>
				</filter>
			</defs>
			<mask maskUnits="userSpaceOnUse" x="4.8" y="28.4" width="25.7" height="3.7" id="SVGID_4_">
				<g class="st7">
					
						<radialGradient id="SVGID_5_" cx="629.677" cy="1543.3683" r="7.7622" gradientTransform="matrix(-1.6526 2.900000e-03 1.240000e-02 -0.2389 1039.0677 397.1606)" gradientUnits="userSpaceOnUse">
						<stop  offset="0" style="stop-color:#FFFFFF"/>
						<stop  offset="0.1213" style="stop-color:#D1D1D1"/>
						<stop  offset="0.3023" style="stop-color:#939392"/>
						<stop  offset="0.4757" style="stop-color:#5F5F5E"/>
						<stop  offset="0.6368" style="stop-color:#363635"/>
						<stop  offset="0.7828" style="stop-color:#191918"/>
						<stop  offset="0.9086" style="stop-color:#070706"/>
						<stop  offset="1" style="stop-color:#010100"/>
					</radialGradient>
					<path class="st8" d="M4.8,30.3c0.1-1,5.8-1.9,12.9-1.9c7.1,0,12.8,0.8,12.7,1.8c0,1-5.8,1.9-12.9,1.9
						C10.4,32.1,4.7,31.3,4.8,30.3z"/>
				</g>
			</mask>
			<path class="st9" d="M4.8,30.3c0.1-1,5.8-1.9,12.9-1.9c7.1,0,12.8,0.8,12.7,1.8c0,1-5.8,1.9-12.9,1.9
				C10.4,32.1,4.7,31.3,4.8,30.3z"/>
			<g>
				<radialGradient id="SVGID_6_" cx="17.601" cy="16.693" r="13.8238" gradientUnits="userSpaceOnUse">
					<stop  offset="0" style="stop-color:#222222"/>
					<stop  offset="0.356" style="stop-color:#151515"/>
					<stop  offset="1" style="stop-color:#000000"/>
				</radialGradient>
				<path class="st10" d="M31.4,16.7c0,7.6-6.2,13.8-13.8,13.8c-7.6,0-13.8-6.2-13.8-13.8C3.8,9.1,10,2.9,17.6,2.9
					C25.2,2.9,31.4,9.1,31.4,16.7z"/>
			</g>
		</g>
		<path class="st11" d="M23.1,9.2c-3.7,0-7.4,0-11.1,0c-1.3,0-2,0.7-2,2c0,1.8,0,3.7,0,5.5c0,1.8,0,3.7,0,5.5c0,1.3,0.7,2,1.9,2
			c3.7,0,7.4,0,11.1,0c1.3,0,2-0.7,2-2c0-3.7,0-7.4,0-11.1C25.1,9.9,24.4,9.2,23.1,9.2z M21.9,10.9c1.5,0,1.5,0,1.5,1.5
			c0,1.5,0,1.5-1.5,1.5c-1.5,0-1.5,0-1.5-1.5C20.5,10.9,20.5,10.9,21.9,10.9z M17.6,13.8c1.6,0,2.9,1.4,2.9,2.9
			c0,1.6-1.4,2.9-2.9,2.9c-1.6,0-2.9-1.4-2.9-2.9C14.7,15.1,16,13.8,17.6,13.8z M23.4,21.6c0,0.7-0.2,0.9-0.9,0.9
			c-1.6,0-3.3,0-4.9,0c-1.6,0-3.3,0-4.9,0c-0.7,0-0.9-0.2-0.9-0.9c0-1.8,0-3.7,0-5.5c0-0.5,0.1-0.6,0.6-0.6c0.7,0.1,0.7,0,0.6,0.7
			c-0.3,2.3,1.3,4.6,3.6,5c2.4,0.5,4.7-1,5.4-3.2c0.2-0.7,0.2-1.5,0.1-2.2c-0.1-0.3,0-0.3,0.2-0.3c1-0.1,1-0.1,1,1
			C23.4,18.2,23.4,19.9,23.4,21.6z"/>
	</g>
</g>
<g id="TW" class="st5">
	<g class="st6">
		<radialGradient id="SVGID_7_" cx="17.6048" cy="16.6551" r="13.8238" gradientUnits="userSpaceOnUse">
			<stop  offset="0" style="stop-color:#222222"/>
			<stop  offset="0.356" style="stop-color:#151515"/>
			<stop  offset="1" style="stop-color:#000000"/>
		</radialGradient>
		<path class="st12" d="M31.4,16.7c0,7.6-6.2,13.8-13.8,13.8c-7.6,0-13.8-6.2-13.8-13.8C3.8,9,10,2.8,17.6,2.8
			C25.2,2.8,31.4,9,31.4,16.7z"/>
		<g>
			<path class="st11" d="M8.4,23.6c1.5,0.1,2.9-0.1,4.3-0.7c0.6-0.3,1.2-0.6,1.7-1c-0.6,0-1.2-0.2-1.8-0.5c-0.9-0.5-1.6-1.2-2-2.2
				c-0.1-0.2-0.1-0.2,0.2-0.2c0.6,0.1,1.1,0,1.5-0.1c-0.4-0.1-0.7-0.2-1-0.4c-1.4-0.8-2.1-1.9-2.2-3.5c0-0.2,0-0.2,0.2-0.1
				c0.5,0.3,1,0.4,1.6,0.4c-0.3-0.2-0.5-0.4-0.7-0.6c-1.1-1.2-1.4-3.2-0.6-4.6c0.1-0.2,0.1-0.2,0.3,0c1.9,2.2,4.3,3.5,7.1,4
				c0.3,0,0.6,0.1,0.9,0.1c0.2,0,0.2-0.1,0.2-0.2c-0.3-1.7,0.5-3.4,2-4.3c1.5-0.9,3.6-0.6,4.8,0.6c0.1,0.1,0.3,0.2,0.4,0.1
				c0.8-0.2,1.5-0.5,2.2-0.8c0,0,0.1,0,0.2-0.1c-0.3,1-0.9,1.7-1.7,2.2c0.8-0.1,1.5-0.3,2.2-0.6c0,0.1-0.1,0.2-0.1,0.2
				c-0.5,0.7-1,1.2-1.7,1.7c-0.1,0.1-0.2,0.2-0.2,0.3c0,3-0.9,5.7-2.8,8c-1.8,2.1-4.1,3.4-6.8,3.8C13.8,25.7,11,25.2,8.4,23.6
				C8.5,23.6,8.5,23.6,8.4,23.6z"/>
		</g>
		<defs>
			<filter id="Adobe_OpacityMaskFilter_2_" filterUnits="userSpaceOnUse" x="4.5" y="28.5" width="25.7" height="3.7">
				<feColorMatrix  type="matrix" values="1 0 0 0 0  0 1 0 0 0  0 0 1 0 0  0 0 0 1 0"/>
			</filter>
		</defs>
		<mask maskUnits="userSpaceOnUse" x="4.5" y="28.5" width="25.7" height="3.7" id="SVGID_8_">
			<g class="st13">
				
					<radialGradient id="SVGID_9_" cx="629.8229" cy="1543.2114" r="7.7622" gradientTransform="matrix(-1.6526 2.900000e-03 1.240000e-02 -0.2389 1039.0677 397.1606)" gradientUnits="userSpaceOnUse">
					<stop  offset="0" style="stop-color:#FFFFFF"/>
					<stop  offset="0.1213" style="stop-color:#D1D1D1"/>
					<stop  offset="0.3023" style="stop-color:#939392"/>
					<stop  offset="0.4757" style="stop-color:#5F5F5E"/>
					<stop  offset="0.6368" style="stop-color:#363635"/>
					<stop  offset="0.7828" style="stop-color:#191918"/>
					<stop  offset="0.9086" style="stop-color:#070706"/>
					<stop  offset="1" style="stop-color:#010100"/>
				</radialGradient>
				<path class="st14" d="M4.5,30.3c0.1-1,5.8-1.9,12.9-1.9c7.1,0,12.8,0.8,12.7,1.8c0,1-5.8,1.9-12.9,1.9
					C10.2,32.2,4.5,31.4,4.5,30.3z"/>
			</g>
		</mask>
		<path class="st15" d="M4.5,30.3c0.1-1,5.8-1.9,12.9-1.9c7.1,0,12.8,0.8,12.7,1.8c0,1-5.8,1.9-12.9,1.9
			C10.2,32.2,4.5,31.4,4.5,30.3z"/>
	</g>
</g>
</svg>
